# AST/ASF file generated using VICON BodyLanguage
# -----------------------------------------------
:version 1.10
:name VICON
:units
  mass 1.0
  length 0.45
  angle deg
:documentation
   .ast/.asf automatically generated from VICON data using
   VICON BodyBuilder and BodyLanguage model FoxedUp or BRILLIANT.MOD
:root
   order TX TY TZ RX RY RZ
   axis XYZ
   position 0 0 0  
   orientation 0 0 0 
:bonedata
  begin
     id 1 
     name lhipjoint
     direction 0.650112 -0.723553 0.232005 
     length 2.45805 
     axis 0 0 0  XYZ
  end
  begin
     id 2 
     name lfemur
     direction 0.34202 -0.939693 0  
     length 7.00073  
     axis 0 0 20  XYZ
    dof rx ry rz
    limits (-160.0 20.0)
           (-70.0 70.0)
           (-60.0 70.0)
  end
  begin
     id 3 
     name ltibia
     direction 0.34202 -0.939693 0   
     length 7.8748   
     axis 0 0 20   XYZ
    dof rx
    limits (-10.0 170.0)
  end
  begin
     id 4 
     name lfoot
     direction 0.0542825 -0.14914 0.987325   
     length 1.75978   
     axis -90 7.62852e-016 20   XYZ
    dof rx rz
    limits (-45.0 90.0)
           (-70.0 20.0)
  end
  begin
     id 5 
     name ltoes
     direction 1.53509e-011 -4.21906e-011 1   
     length 0.893912   
     axis -90 7.62852e-016 20   XYZ
    dof rx
    limits (-90.0 20.0)
  end
  begin
     id 6 
     name rhipjoint
     direction -0.637897 -0.733345 0.235145   
     length 2.42522  
     axis 0 0 0  XYZ 
  end
  begin
     id 7 
     name rfemur
     direction -0.34202 -0.939693 0   
     length 7.02549   
     axis 0 0 -20   XYZ
    dof rx ry rz
    limits (-160.0 20.0)
           (-70.0 70.0)
           (-70.0 60.0)
  end
  begin
     id 8 
     name rtibia
     direction -0.34202 -0.939693 0   
     length 7.71512   
     axis 0 0 -20   XYZ
    dof rx
    limits (-10.0 170.0)
 end
 begin
     id 9 
     name rfoot
     direction -0.0822618 -0.226012 0.970645   
     length 1.90014  
     axis -90 -7.62852e-016 -20   XYZ
    dof rx rz
    limits (-45.0 90.0)
           (-20.0 70.0)
  end
  begin
     id 10 
     name rtoes
     direction -1.53542e-011 -4.21872e-011 1   
     length 0.957341   
     axis -90 -7.62852e-016 -20   XYZ
    dof rx
    limits (-90.0 20.0)
  end
  begin
     id 11 
     name lowerback
     direction -0.0022947 0.999774 -0.0211557   
     length 1.89909   
     axis 0 0 0   XYZ
    dof rx ry rz
    limits (-20.0 45.0)
           (-30.0 30.0)
           (-30.0 30.0)
  end
  begin
     id 12 
     name upperback
     direction 0.0107737 0.998635 0.0511027   
     length 1.8853   
     axis 0 0 0   XYZ
    dof rx ry rz
    limits (-20.0 45.0)
           (-30.0 30.0)
           (-30.0 30.0)
  end
  begin
     id 13 
     name thorax
     direction 0.011824 0.998136 0.0598754   
     length 1.88911   
     axis 0 0 0   XYZ
    dof rx ry rz
    limits (-20.0 45.0)
           (-30.0 30.0)
           (-30.0 30.0)
  end
  begin
     id 14 
     name lowerneck
     direction -0.0685355 0.990319 0.120714   
     length 1.91222   
     axis 0 0 0   XYZ
    dof rx ry rz
    limits (-20.0 45.0)
           (-30.0 30.0)
           (-30.0 30.0)
  end
  begin
     id 15 
     name upperneck
     direction 0.0886204 0.955665 -0.280805   
     length 1.92526   
     axis 0 0 0   XYZ
    dof rx ry rz
    limits (-20.0 45.0)
           (-30.0 30.0)
           (-30.0 30.0)
  end
  begin
     id 16
     name head
     direction 0.0233423 0.993502 -0.111393  
     length 1.96056  
     axis 0 0 0   XYZ
    dof rx ry rz
    limits (-20.0 45.0)
           (-30.0 30.0)
           (-30.0 30.0)
  end
  begin
     id 17 
     name lclavicle
     direction 0.941873 0.32922 0.0670041  
     length 3.31705  
     axis 0 0 0   XYZ
    dof ry rz
    limits (-20.0 10.0)
           (0.0 20.0)
  end
  begin
     id 18 
     name lhumerus
     direction 1 -4.4898e-011 3.38707e-028   
     length 5.29277   
     axis 180 -30 -90   XYZ
    dof rx ry rz
    limits (-60.0 90.0)
           (-90.0 90.0)
           (-90.0 90.0)
  end
  begin
     id 19
     name lradius
     direction 1 -4.48952e-011 1.63213e-028   
     length 2.85226   
     axis 180 -30 -90   XYZ
    dof rx
    limits (-10.0 170.0)
  end
  begin
     id 20
     name lwrist
     direction 1 -4.49001e-011 1.27856e-027   
     length 1.42613   
     axis -1.61767e-015 90 90   XYZ
    dof ry
    limits (-180.0 0.0)
 end
  begin
     id 21 
     name lhand
     direction 1 -4.48976e-011 2.55931e-027   
     length 0.602097   
     axis -1.63363e-015 90 90   XYZ
    dof rx rz
    limits (-90.0 90.0)
           (-45.0 45.0)
  end
  begin
     id 22 
     name lfingers
     direction 1 -4.48986e-011 5.11684e-027   
     length 0.485426   
     axis -3.26723e-015 90 90   XYZ
    dof rx
    limits (0.0 90.0)
  end
  begin
     id 23
     name lthumb
     direction 0.707107 -6.34915e-011 0.707107   
     length 0.696978   
     axis -90 45 -2.25915e-014   XYZ
    dof rx rz
    limits (-45.0 45.0)
           (-45.0 45.0)
  end
  begin
     id 24 
     name rclavicle
     direction -0.939974 0.327078 0.0973096   
     length 3.10337  
     axis 0 0 0   XYZ 
    dof ry rz
    limits (-10.0 20.0)
           (-20.0 0.0)
  end
  begin
     id 25 
     name rhumerus
     direction -1 -4.48975e-011 1.83745e-027  
     length 5.13304   
     axis 180 30 90   XYZ
    dof rx ry rz
    limits (-90.0 60.0)
           (-90.0 90.0)
           (-90.0 90.0)
  end
  begin
     id 26 
     name rradius
     direction -1 -4.48977e-011 7.1775e-029   
     length 2.74305   
     axis 180 30 90   XYZ
    dof rx
    limits (-10.0 170.0)
  end
  begin
     id 27 
     name rwrist
     direction -1 -4.48977e-011 1.27963e-027   
     length 1.37152   
     axis -1.61767e-015 -90 -90   XYZ
    dof ry
    limits (-180.0 0.0)
  end
  begin
     id 28
     name rhand
     direction -1 -4.4888e-011 2.56782e-027   
     length 0.767976   
     axis -1.63363e-015 -90 -90   XYZ
    dof rx rz
    limits (-90.0 90.0)
           (-45.0 45.0)
  end
  begin
     id 29
     name rfingers
     direction -1 -4.48947e-011 5.12384e-027   
     length 0.619162   
     axis -3.26723e-015 -90 -90   XYZ
    dof rx
    limits (0.0 90.0)
  end
  begin
     id 30
     name rthumb
     direction -0.707107 -6.34857e-011 0.707107   
     length 0.888997   
     axis -90 -45 2.25915e-014   XYZ
    dof rx rz
    limits (-45.0 45.0)
           (-45.0 45.0)
  end
:hierarchy
  begin
    root lhipjoint rhipjoint lowerback
    lhipjoint lfemur
    lfemur ltibia
    ltibia lfoot
    lfoot ltoes
    rhipjoint rfemur
    rfemur rtibia
    rtibia rfoot
    rfoot rtoes
    lowerback upperback
    upperback thorax
    thorax lowerneck lclavicle rclavicle
    lowerneck upperneck
    upperneck head
    lclavicle lhumerus
    lhumerus lradius
    lradius lwrist
    lwrist lhand lthumb
    lhand lfingers
    rclavicle rhumerus
    rhumerus rradius
    rradius rwrist
    rwrist rhand rthumb
    rhand rfingers
  end

#!OML:ASF F:\VICON\USERDATA\INSTALL\rory3\rory3.ASF
:FULLY-SPECIFIED
:DEGREES
91
root 0.0460055 17.4347 0.133919 3.91794 1.63797 -0.441525
lowerback -3.40798 0.0597441 -2.22654
upperback -3.72015 0.135439 1.06306
thorax -1.91986 0.134668 2.34287
lowerneck -11.5015 -11.8981 -16.7638
upperneck 28.7012 -18.3451 15.0033
head 15.0159 -8.2346 5.62568
rclavicle 4.8081e-015 -7.95139e-015
rhumerus -34.2199 -7.90907 -84.1708
rradius 21.4936
rwrist 29.3901
rhand -10.1521 12.5973
rfingers 7.12502
rthumb 15.8372 -16.7749
lclavicle 4.8081e-015 -7.95139e-015
lhumerus -32.6049 2.81258 90.4719
lradius 15.5519
lwrist -25.6065
lhand -8.85967 22.5968
lfingers 7.12502
lthumb 17.0815 51.8659
rfemur 6.07354 10.8304 20.0686
rtibia -1.27222e-014
rfoot -7.52611 -13.1419
rtoes -15.7236
lfemur -0.936581 -19.3305 -18.9169
ltibia 11.542
lfoot -13.8816 11.9408
ltoes -19.4375
92
root 0.0454048 17.4351 0.131004 3.94184 1.66582 -0.400931
lowerback -3.38257 0.0372586 -2.28616
upperback -3.68867 0.106051 1.05716
thorax -1.90019 0.120635 2.36978
lowerneck -11.6124 -11.8964 -16.7274
upperneck 28.7213 -18.3226 14.9637
head 15.0349 -8.21857 5.60312
rclavicle -7.7526e-015 1.22253e-014
rhumerus -34.1721 -7.55826 -84.3662
rradius 21.4812
rwrist 29.4378
rhand -10.5863 12.5014
rfingers 7.12502
rthumb 15.419 -16.9035
lclavicle -7.7526e-015 1.22253e-014
lhumerus -32.4634 2.97066 90.3665
lradius 15.4361
lwrist -25.7922
lhand -8.79916 22.6676
lfingers 7.12502
lthumb 17.1398 51.9316
rfemur 6.03731 10.7999 20.0243
rtibia 1.59028e-015
rfoot -7.48127 -13.1588
rtoes -15.5195
lfemur -0.969715 -19.3601 -18.9314
ltibia 11.5119
lfoot -13.8524 11.9687
ltoes -19.6025
93
root 0.045167 17.4355 0.127869 3.97518 1.65249 -0.360073
lowerback -3.37304 0.040368 -2.3398
upperback -3.65566 0.111086 1.05722
thorax -1.87204 0.123618 2.40006
lowerneck -11.6832 -11.9104 -16.7185
upperneck 28.7041 -18.3142 14.9187
head 15.0334 -8.21451 5.57946
rclavicle 1.80149e-015 1.799e-014
rhumerus -34.0968 -7.43037 -84.4399
rradius 21.4992
rwrist 29.3732
rhand -10.669 12.3632
rfingers 7.12502
rthumb 15.3394 -17.0478
lclavicle 1.80149e-015 1.799e-014
lhumerus -32.3473 3.17405 90.2728
lradius 15.3479
lwrist -26.0359
lhand -8.84205 22.648
lfingers 7.12502
lthumb 17.0985 51.9156
rfemur 5.98571 10.8107 19.9685
rtibia 9.54166e-015
rfoot -7.44002 -13.1533
rtoes -15.2635
lfemur -1.0161 -19.349 -18.96
ltibia 11.4992
lfoot -13.9147 11.9445
ltoes -19.5126
94
root 0.0461368 17.436 0.123953 3.97183 1.64598 -0.402277
lowerback -3.31673 0.040288 -2.30449
upperback -3.6453 0.109556 1.0855
thorax -1.89268 0.122584 2.40922
lowerneck -11.5766 -11.8953 -16.7641
upperneck 28.5969 -18.2901 14.9605
head 14.9662 -8.2119 5.61081
rclavicle -7.24322e-015 1.15295e-014
rhumerus -34.111 -7.38499 -84.4422
rradius 21.5458
rwrist 29.4028
rhand -10.6187 12.3563
rfingers 7.12502
rthumb 15.3878 -17.0511
lclavicle -7.24322e-015 1.15295e-014
lhumerus -32.3025 3.38923 90.1709
lradius 15.2604
lwrist -26.2767
lhand -8.96616 22.6152
lfingers 7.12502
lthumb 16.979 51.8931
rfemur 5.96915 10.8203 20.0039
rtibia 1.11319e-014
rfoot -7.47596 -13.1329
rtoes -15.0209
lfemur -1.02576 -19.3395 -18.9157
ltibia 11.4981
lfoot -13.8486 11.9446
ltoes -19.5918
95
root 0.0456302 17.4363 0.12037 3.97037 1.64163 -0.443634
lowerback -3.24818 0.0606911 -2.25532
upperback -3.64751 0.134514 1.08445
thorax -1.9345 0.13453 2.38074
lowerneck -11.4423 -11.8965 -16.8457
upperneck 28.4927 -18.3188 15.0876
head 14.923 -8.22842 5.67428
rclavicle 5.66536e-015 3.97569e-016
rhumerus -34.1522 -7.31383 -84.4952
rradius 21.6209
rwrist 29.3627
rhand -10.548 12.3259
rfingers 7.12502
rthumb 15.4559 -17.0762
lclavicle 5.66536e-015 3.97569e-016
lhumerus -32.334 3.28277 90.1688
lradius 15.3067
lwrist -26.2489
lhand -8.91984 22.6254
lfingers 7.12502
lthumb 17.0236 51.8994
rfemur 5.95271 10.8274 20.0494
rtibia -3.81667e-014
rfoot -7.47571 -13.1331
rtoes -15.2039
lfemur -1.04334 -19.3318 -18.8617
ltibia 11.5141
lfoot -13.7885 11.9634
ltoes -20.3872
96
root 0.0463355 17.4368 0.118178 3.98634 1.63996 -0.447572
lowerback -3.2305 0.0657596 -2.23769
upperback -3.61842 0.140563 1.07332
thorax -1.91455 0.136401 2.35942
lowerneck -11.4949 -11.9035 -16.8279
upperneck 28.4659 -18.3299 15.1148
head 14.9267 -8.22554 5.67673
rclavicle 7.60351e-015 -1.30204e-014
rhumerus -34.1095 -7.27907 -84.5385
rradius 21.6108
rwrist 29.3253
rhand -10.6042 12.4568
rfingers 7.12502
rthumb 15.4017 -16.9495
lclavicle 7.60351e-015 -1.30204e-014
lhumerus -32.2905 3.52946 89.9997
lradius 15.3058
lwrist -26.5919
lhand -8.72195 22.5995
lfingers 7.12502
lthumb 17.2141 51.8571
rfemur 5.9278 10.8293 20.0516
rtibia -7.95139e-015
rfoot -7.48497 -13.1341
rtoes -15.2424
lfemur -1.07678 -19.3296 -18.8536
ltibia 11.524
lfoot -13.7386 11.9762
ltoes -20.6295
97
root 0.0478576 17.4368 0.116806 3.99137 1.64817 -0.455053
lowerback -3.19731 0.0673089 -2.20716
upperback -3.57659 0.141646 1.07801
thorax -1.88985 0.13551 2.34703
lowerneck -11.5918 -11.9269 -16.8183
upperneck 28.4396 -18.3365 15.0857
head 14.9324 -8.22467 5.65463
rclavicle 1.49089e-016 -4.07509e-015
rhumerus -34.0188 -7.18186 -84.5833
rradius 21.5827
rwrist 29.1943
rhand -10.6871 12.5203
rfingers 7.12502
rthumb 15.3219 -16.892
lclavicle 1.49089e-016 -4.07509e-015
lhumerus -32.1961 3.96029 89.7824
lradius 15.2461
lwrist -27.1451
lhand -8.53768 22.52
lfingers 7.12502
lthumb 17.3914 51.762
rfemur 5.92001 10.8218 20.0533
rtibia 1.59028e-014
rfoot -7.44558 -13.1294
rtoes -15.1056
lfemur -1.08637 -19.3372 -18.8435
ltibia 11.5278
lfoot -13.7286 11.9891
ltoes -20.3773
98
root 0.0477821 17.4371 0.114444 4.01273 1.66262 -0.413697
lowerback -3.17992 0.0667384 -2.23512
upperback -3.5289 0.140932 1.06069
thorax -1.8504 0.134492 2.34485
lowerneck -11.6799 -11.9534 -16.8132
upperneck 28.4081 -18.3559 15.0807
head 14.9407 -8.22786 5.64097
rclavicle 9.14409e-015 1.61016e-014
rhumerus -33.9403 -7.18343 -84.6061
rradius 21.5668
rwrist 29.215
rhand -10.8622 12.5328
rfingers 7.12502
rthumb 15.1532 -16.8924
lclavicle 9.14409e-015 1.61016e-014
lhumerus -32.0994 4.1572 89.6622
lradius 15.181
lwrist -27.405
lhand -8.54406 22.2972
lfingers 7.12502
lthumb 17.3853 51.5397
rfemur 5.89328 10.8047 20.0034
rtibia -9.54166e-015
rfoot -7.4304 -13.1485
rtoes -14.9669
lfemur -1.11047 -19.3541 -18.8766
ltibia 11.5188
lfoot -13.6855 12.0009
ltoes -20.3347
99
root 0.0459559 17.4383 0.10741 4.0536 1.67142 -0.400159
lowerback -3.07845 0.0641606 -2.24818
upperback -3.54585 0.135389 1.04314
thorax -1.92438 0.132953 2.33384
lowerneck -11.6767 -11.9611 -16.8001
upperneck 28.38 -18.3671 15.0842
head 14.9284 -8.23137 5.63656
rclavicle -2.68359e-015 6.55989e-015
rhumerus -33.934 -7.16057 -84.6615
rradius 21.5626
rwrist 29.213
rhand -10.9228 12.5188
rfingers 7.12502
rthumb 15.0949 -16.9108
lclavicle -2.68359e-015 6.55989e-015
lhumerus -32.0777 4.12744 89.6291
lradius 15.1706
lwrist -27.3447
lhand -8.61071 22.2629
lfingers 7.12502
lthumb 17.3211 51.5111
rfemur 5.82045 10.795 19.9849
rtibia -2.06736e-014
rfoot -7.40177 -13.1422
rtoes -14.9147
lfemur -1.1684 -19.362 -18.8473
ltibia 11.474
lfoot -13.6582 12.0077
ltoes -20.5557
100
root 0.0461775 17.439 0.101176 4.05533 1.66209 -0.394408
lowerback -2.9894 0.057505 -2.25288
upperback -3.51283 0.124867 1.04271
thorax -1.93958 0.127607 2.33574
lowerneck -11.7281 -11.97 -16.7833
upperneck 28.3333 -18.3704 15.0924
head 14.9183 -8.22757 5.6317
rclavicle 5.72748e-015 1.21259e-014
rhumerus -33.8352 -7.35994 -84.5777
rradius 21.553
rwrist 29.6791
rhand -11.0052 12.6347
rfingers 7.12502
rthumb 15.0155 -16.8008
lclavicle 5.72748e-015 1.21259e-014
lhumerus -31.9711 4.41544 89.4782
lradius 15.099
lwrist -27.681
lhand -8.51863 22.3183
lfingers 7.12502
lthumb 17.4098 51.5587
rfemur 5.80157 10.8041 19.9692
rtibia -1.59028e-015
rfoot -7.40661 -13.115
rtoes -14.6732
lfemur -1.16307 -19.3527 -18.8409
ltibia 11.4082
lfoot -13.6374 11.968
ltoes -20.1719
